<svg width="505" height="505" viewBox="0 0 505 505" fill="none" xmlns="http://www.w3.org/2000/svg">
<rect x="85" y="90.9995" width="335" height="323" fill="white" stroke="#0E9467" stroke-width="28"/>
<rect x="248.258" y="23.397" width="330" height="318" transform="rotate(45 248.258 23.397)" fill="white" stroke="#0E9467" stroke-width="33"/>
<rect x="111" y="117" width="283" height="271" fill="white"/>
<rect x="248.258" y="56.6309" width="283" height="271" transform="rotate(45 248.258 56.6309)" fill="white"/>
<path d="M178.98 223.129H171.117V217.693H178.98C180.141 217.693 181.072 217.5 181.773 217.113C182.49 216.727 183.012 216.197 183.342 215.523C183.686 214.836 183.857 214.062 183.857 213.203C183.857 212.315 183.686 211.492 183.342 210.732C183.012 209.959 182.49 209.336 181.773 208.863C181.072 208.391 180.141 208.154 178.98 208.154H173.652V234H166.648V202.719H178.98C181.473 202.719 183.607 203.17 185.383 204.072C187.173 204.975 188.541 206.214 189.486 207.789C190.446 209.35 190.926 211.141 190.926 213.16C190.926 215.18 190.446 216.934 189.486 218.424C188.541 219.913 187.173 221.074 185.383 221.904C183.607 222.721 181.473 223.129 178.98 223.129ZM221.262 217.672V219.068C221.262 221.446 220.932 223.58 220.273 225.471C219.629 227.361 218.705 228.973 217.502 230.305C216.313 231.637 214.895 232.661 213.248 233.377C211.615 234.079 209.803 234.43 207.812 234.43C205.822 234.43 204.003 234.079 202.355 233.377C200.708 232.661 199.276 231.637 198.059 230.305C196.855 228.973 195.924 227.361 195.266 225.471C194.607 223.58 194.277 221.446 194.277 219.068V217.672C194.277 215.294 194.607 213.16 195.266 211.27C195.924 209.365 196.848 207.746 198.037 206.414C199.24 205.082 200.665 204.065 202.312 203.363C203.96 202.647 205.779 202.289 207.77 202.289C209.76 202.289 211.579 202.647 213.227 203.363C214.874 204.065 216.292 205.082 217.48 206.414C218.684 207.746 219.615 209.365 220.273 211.27C220.932 213.16 221.262 215.294 221.262 217.672ZM214.193 219.068V217.629C214.193 216.039 214.05 214.635 213.764 213.418C213.477 212.186 213.062 211.155 212.518 210.324C211.973 209.493 211.3 208.87 210.498 208.455C209.696 208.025 208.786 207.811 207.77 207.811C206.71 207.811 205.786 208.025 204.998 208.455C204.21 208.87 203.544 209.493 203 210.324C202.47 211.155 202.062 212.186 201.775 213.418C201.503 214.635 201.367 216.039 201.367 217.629V219.068C201.367 220.644 201.503 222.048 201.775 223.279C202.062 224.497 202.477 225.528 203.021 226.373C203.566 227.218 204.232 227.855 205.02 228.285C205.822 228.715 206.753 228.93 207.812 228.93C208.829 228.93 209.732 228.715 210.52 228.285C211.322 227.855 211.995 227.218 212.539 226.373C213.083 225.528 213.492 224.497 213.764 223.279C214.05 222.048 214.193 220.644 214.193 219.068ZM251.361 202.719V234H244.379L232.562 213.783V234H225.559V202.719H232.562L244.4 222.936V202.719H251.361ZM266.443 234H259.568L259.611 228.586H266.443C268.005 228.586 269.322 228.228 270.396 227.512C271.471 226.781 272.287 225.707 272.846 224.289C273.404 222.857 273.684 221.117 273.684 219.068V217.629C273.684 216.082 273.526 214.721 273.211 213.547C272.896 212.358 272.43 211.363 271.814 210.561C271.199 209.758 270.432 209.157 269.516 208.756C268.613 208.355 267.575 208.154 266.4 208.154H259.439V202.719H266.4C268.52 202.719 270.454 203.077 272.201 203.793C273.963 204.509 275.481 205.533 276.756 206.865C278.045 208.197 279.04 209.773 279.742 211.592C280.444 213.411 280.795 215.438 280.795 217.672V219.068C280.795 221.288 280.444 223.315 279.742 225.148C279.04 226.967 278.045 228.543 276.756 229.875C275.481 231.193 273.97 232.21 272.223 232.926C270.475 233.642 268.549 234 266.443 234ZM263.543 202.719V234H256.539V202.719H263.543ZM311.152 217.672V219.068C311.152 221.446 310.823 223.58 310.164 225.471C309.52 227.361 308.596 228.973 307.393 230.305C306.204 231.637 304.786 232.661 303.139 233.377C301.506 234.079 299.694 234.43 297.703 234.43C295.712 234.43 293.893 234.079 292.246 233.377C290.599 232.661 289.167 231.637 287.949 230.305C286.746 228.973 285.815 227.361 285.156 225.471C284.497 223.58 284.168 221.446 284.168 219.068V217.672C284.168 215.294 284.497 213.16 285.156 211.27C285.815 209.365 286.739 207.746 287.928 206.414C289.131 205.082 290.556 204.065 292.203 203.363C293.85 202.647 295.669 202.289 297.66 202.289C299.651 202.289 301.47 202.647 303.117 203.363C304.764 204.065 306.182 205.082 307.371 206.414C308.574 207.746 309.505 209.365 310.164 211.27C310.823 213.16 311.152 215.294 311.152 217.672ZM304.084 219.068V217.629C304.084 216.039 303.941 214.635 303.654 213.418C303.368 212.186 302.952 211.155 302.408 210.324C301.864 209.493 301.191 208.87 300.389 208.455C299.587 208.025 298.677 207.811 297.66 207.811C296.6 207.811 295.676 208.025 294.889 208.455C294.101 208.87 293.435 209.493 292.891 210.324C292.361 211.155 291.952 212.186 291.666 213.418C291.394 214.635 291.258 216.039 291.258 217.629V219.068C291.258 220.644 291.394 222.048 291.666 223.279C291.952 224.497 292.368 225.528 292.912 226.373C293.456 227.218 294.122 227.855 294.91 228.285C295.712 228.715 296.643 228.93 297.703 228.93C298.72 228.93 299.622 228.715 300.41 228.285C301.212 227.855 301.885 227.218 302.43 226.373C302.974 225.528 303.382 224.497 303.654 223.279C303.941 222.048 304.084 220.644 304.084 219.068ZM322.453 202.719V234H315.449V202.719H322.453ZM341.145 202.719L328.898 218.359L321.766 226.094L320.498 219.584L325.203 212.838L332.551 202.719H341.145ZM333.023 234L324.387 219.713L329.715 215.566L341.316 234H333.023Z" fill="black"/>
<path d="M141.232 270.129H133.369V264.693H141.232C142.393 264.693 143.324 264.5 144.025 264.113C144.742 263.727 145.264 263.197 145.594 262.523C145.938 261.836 146.109 261.062 146.109 260.203C146.109 259.315 145.938 258.492 145.594 257.732C145.264 256.959 144.742 256.336 144.025 255.863C143.324 255.391 142.393 255.154 141.232 255.154H135.904V281H128.9V249.719H141.232C143.725 249.719 145.859 250.17 147.635 251.072C149.425 251.975 150.793 253.214 151.738 254.789C152.698 256.35 153.178 258.141 153.178 260.16C153.178 262.18 152.698 263.934 151.738 265.424C150.793 266.913 149.425 268.074 147.635 268.904C145.859 269.721 143.725 270.129 141.232 270.129ZM178.701 275.586V281H162.051V275.586H178.701ZM164.436 249.719V281H157.432V249.719H164.436ZM176.553 262.309V267.551H162.051V262.309H176.553ZM178.723 249.719V255.154H162.051V249.719H178.723ZM198.359 272.75C198.359 272.22 198.281 271.747 198.123 271.332C197.965 270.902 197.679 270.508 197.264 270.15C196.848 269.792 196.261 269.434 195.502 269.076C194.743 268.704 193.747 268.324 192.516 267.938C191.112 267.479 189.773 266.964 188.498 266.391C187.238 265.803 186.113 265.123 185.125 264.35C184.137 263.576 183.356 262.674 182.783 261.643C182.225 260.611 181.945 259.408 181.945 258.033C181.945 256.701 182.239 255.498 182.826 254.424C183.413 253.35 184.237 252.433 185.297 251.674C186.357 250.9 187.603 250.313 189.035 249.912C190.467 249.497 192.043 249.289 193.762 249.289C196.053 249.289 198.066 249.697 199.799 250.514C201.546 251.316 202.907 252.447 203.881 253.908C204.855 255.355 205.342 257.038 205.342 258.957H198.381C198.381 258.112 198.202 257.367 197.844 256.723C197.5 256.064 196.97 255.548 196.254 255.176C195.552 254.803 194.671 254.617 193.611 254.617C192.58 254.617 191.714 254.775 191.012 255.09C190.324 255.391 189.801 255.806 189.443 256.336C189.1 256.866 188.928 257.446 188.928 258.076C188.928 258.577 189.057 259.036 189.314 259.451C189.587 259.852 189.973 260.232 190.475 260.59C190.99 260.934 191.62 261.263 192.365 261.578C193.11 261.893 193.962 262.194 194.922 262.48C196.598 263.01 198.08 263.598 199.369 264.242C200.673 264.887 201.768 265.617 202.656 266.434C203.544 267.25 204.21 268.174 204.654 269.205C205.113 270.236 205.342 271.404 205.342 272.707C205.342 274.096 205.07 275.328 204.525 276.402C203.995 277.477 203.222 278.393 202.205 279.152C201.202 279.897 199.999 280.463 198.596 280.85C197.192 281.236 195.624 281.43 193.891 281.43C192.315 281.43 190.761 281.229 189.229 280.828C187.696 280.413 186.307 279.783 185.061 278.938C183.829 278.092 182.84 277.018 182.096 275.715C181.365 274.397 181 272.836 181 271.031H188.004C188.004 271.977 188.14 272.779 188.412 273.438C188.684 274.082 189.071 274.605 189.572 275.006C190.088 275.407 190.711 275.693 191.441 275.865C192.172 276.037 192.988 276.123 193.891 276.123C194.936 276.123 195.781 275.98 196.426 275.693C197.085 275.393 197.572 274.984 197.887 274.469C198.202 273.953 198.359 273.38 198.359 272.75ZM222.465 255.67L214.387 281H206.91L218.49 249.719H223.217L222.465 255.67ZM229.168 281L221.068 255.67L220.23 249.719H225.021L236.645 281H229.168ZM228.824 269.355V274.77H212.518V269.355H228.824ZM265.047 249.719V281H258.064L246.248 260.783V281H239.244V249.719H246.248L258.086 269.936V249.719H265.047ZM284.146 249.719V281H277.164V249.719H284.146ZM293.664 249.719V255.154H267.84V249.719H293.664ZM297.123 249.719H309.133C311.525 249.719 313.594 250.077 315.342 250.793C317.104 251.509 318.457 252.569 319.402 253.973C320.348 255.376 320.82 257.109 320.82 259.172C320.82 260.891 320.541 262.352 319.982 263.555C319.424 264.758 318.636 265.753 317.619 266.541C316.617 267.329 315.442 267.966 314.096 268.453L311.818 269.699H301.592L301.549 264.264H309.154C310.2 264.264 311.066 264.077 311.754 263.705C312.441 263.333 312.957 262.81 313.301 262.137C313.659 261.449 313.838 260.647 313.838 259.73C313.838 258.785 313.659 257.969 313.301 257.281C312.943 256.594 312.413 256.071 311.711 255.713C311.023 255.34 310.164 255.154 309.133 255.154H304.127V281H297.123V249.719ZM314.439 281L307.414 267.1L314.805 267.078L321.938 280.678V281H314.439ZM346.838 275.586V281H330.188V275.586H346.838ZM332.572 249.719V281H325.568V249.719H332.572ZM344.689 262.309V267.551H330.188V262.309H344.689ZM346.859 249.719V255.154H330.188V249.719H346.859ZM376.078 249.719V281H369.096L357.279 260.783V281H350.275V249.719H357.279L369.117 269.936V249.719H376.078Z" fill="black"/>
<rect x="142" y="313" width="221" height="5" fill="#FFBF00"/>
<rect x="142" y="167" width="221" height="5" fill="#FFBF00"/>
</svg>
